<svg xmlns="http://www.w3.org/2000/svg" width="34.104" height="35.566" viewBox="0 0 34.104 35.566">
  <g id="グループ_1175" data-name="グループ 1175" transform="translate(1.5 1.5)">
    <path id="パス_2083" data-name="パス 2083" d="M2918.1-2455.113H2887a1.5,1.5,0,0,1-1.5-1.5,1.5,1.5,0,0,1,1.5-1.5h29.6v-31.066a1.5,1.5,0,0,1,1.5-1.5,1.5,1.5,0,0,1,1.5,1.5v32.566A1.5,1.5,0,0,1,2918.1-2455.113Z" transform="translate(-2887 2489.178)" fill="#5416c4"/>
    <path id="パス_2141" data-name="パス 2141" d="M2906.851-2467.9H2887a.5.5,0,0,1-.5-.5.5.5,0,0,1,.5-.5h19.35v-20.283a.5.5,0,0,1,.5-.5.5.5,0,0,1,.5.5v20.783A.5.5,0,0,1,2906.851-2467.9Z" transform="translate(-2881.373 2495.07)" fill="#5416c4"/>
  </g>
</svg>
