<svg xmlns="http://www.w3.org/2000/svg" width="34.104" height="35.566" viewBox="0 0 34.104 35.566">
  <g id="グループ_1174" data-name="グループ 1174" transform="translate(-200.445 -264.5)">
    <path id="パス_2083" data-name="パス 2083" d="M2887-2455.113a1.5,1.5,0,0,1-1.5-1.5v-32.566a1.5,1.5,0,0,1,1.5-1.5h31.1a1.5,1.5,0,0,1,1.5,1.5,1.5,1.5,0,0,1-1.5,1.5h-29.6v31.066A1.5,1.5,0,0,1,2887-2455.113Z" transform="translate(-2685.055 2755.178)" fill="#5416c4"/>
    <path id="パス_2141" data-name="パス 2141" d="M2887-2467.9a.5.5,0,0,1-.5-.5v-20.783a.5.5,0,0,1,.5-.5h19.85a.5.5,0,0,1,.5.5.5.5,0,0,1-.5.5H2887.5v20.283A.5.5,0,0,1,2887-2467.9Z" transform="translate(-2679.428 2761.07)" fill="#5416c4"/>
  </g>
</svg>
