<svg xmlns="http://www.w3.org/2000/svg" xmlns:xlink="http://www.w3.org/1999/xlink" width="280.237" height="144.266" viewBox="0 0 280.237 144.266"><defs><clipPath id="a"><rect width="68.835" height="77.044" fill="none"/></clipPath></defs><g transform="translate(104.733 67.222)"><g transform="translate(0 0)" clip-path="url(#a)"><path d="M36.953,72.419c-7.751,0-11.538-2.622-16.779-6.253-.771-.535-1.577-1.092-2.432-1.669a.678.678,0,0,1-.29-.657l4.108-29.2C18.99,33.833,8.2,30.419,4.26,28.808A6.342,6.342,0,0,1,.731,21.456C1.541,18.393,4.409,17.3,6.82,17.3a5.267,5.267,0,0,1,.566.028c5.063.911,31.429,8.8,42.347,13.31.7-.394,1.289-1.14,2.436-5.937a20.9,20.9,0,0,0,.4-2.331c.259-2,.462-3.583,3.124-7.453A7.79,7.79,0,0,1,61.96,11.5c2.44,0,4.985,1.019,5.791,2.319a1.58,1.58,0,0,1,.144,1.518C62.748,26.7,59.958,54.962,59.929,55.247c-.059.263-4.3,15.906-20.058,17.061-1.017.075-2,.112-2.917.112" transform="translate(0.155 3.952)" fill="#6c2ccc"/><path d="M62.114,12.34c2.983,0,5.912,1.626,5.343,2.882-5.254,11.6-8.023,40.131-8.023,40.131S55.457,70.676,39.979,71.81c-1.017.075-1.972.11-2.87.11-8.677,0-12.234-3.358-18.855-7.811l4.189-29.77S9.068,30.164,4.658,28.356a5.626,5.626,0,0,1-3.142-6.55c.805-3.044,3.868-3.662,5.459-3.662a4.932,4.932,0,0,1,.5.023c4.958.894,31.794,8.929,42.444,13.38,1.136-.566,1.776-1.222,3.039-6.515.838-3.506-.092-4.448,3.422-9.556a7.108,7.108,0,0,1,5.734-3.138m0-1.344a8.449,8.449,0,0,0-6.8,3.7c-2.756,4.006-2.979,5.742-3.238,7.754a20.13,20.13,0,0,1-.387,2.258c-.91,3.812-1.432,4.9-1.892,5.338C38.648,25.5,12.684,17.742,7.7,16.844c-.031-.005-.063-.011-.1-.013a6.1,6.1,0,0,0-.63-.03c-2.531,0-5.811,1.219-6.721,4.654a6.993,6.993,0,0,0,3.84,8.114l.078.035C7.9,31.131,17.7,34.252,20.988,35.288L16.959,63.917a1.362,1.362,0,0,0,.578,1.317c.854.574,1.655,1.129,2.424,1.661,5.339,3.7,9.195,6.37,17.148,6.37.934,0,1.931-.038,2.964-.114C56.293,71.962,60.655,55.862,60.7,55.7a1.3,1.3,0,0,0,.038-.214c.027-.282,2.807-28.436,7.908-39.7a2.274,2.274,0,0,0-.187-2.163c-.93-1.5-3.656-2.63-6.342-2.63" transform="translate(0 3.781)" fill="#fff"/><rect width="39.027" height="68.764" rx="3.124" transform="translate(14.529 0.672)" fill="#6c2ccc"/><path d="M46.206,1.344a3.48,3.48,0,0,1,3.432,3.527V65.237a3.48,3.48,0,0,1-3.432,3.527H15.35a3.48,3.48,0,0,1-3.432-3.527V4.871A3.48,3.48,0,0,1,15.35,1.344Zm0-1.344H15.35a4.812,4.812,0,0,0-4.74,4.871V65.237a4.812,4.812,0,0,0,4.74,4.871H46.206a4.812,4.812,0,0,0,4.74-4.871V4.871A4.812,4.812,0,0,0,46.206,0" transform="translate(3.263 0)" fill="#fff"/><path d="M44.072,58.269H15.687a2.029,2.029,0,0,1-2-2.056V5.84a2.029,2.029,0,0,1,2-2.056H44.072a2.029,2.029,0,0,1,2,2.056V56.213a2.029,2.029,0,0,1-2,2.056" transform="translate(4.21 1.301)" fill="#fff"/><path d="M28.764,48.576a2.211,2.211,0,1,1-2.21-2.271,2.242,2.242,0,0,1,2.21,2.271" transform="translate(7.488 15.919)" fill="#fff"/><path d="M14.672,55.515l-5.118-2.3a4.622,4.622,0,0,1-2.288-6.023,4.4,4.4,0,0,1,5.859-2.352l5.118,2.306a4.619,4.619,0,0,1,2.288,6.021,4.4,4.4,0,0,1-5.859,2.352" transform="translate(2.12 15.281)" fill="#6c2ccc"/><path d="M14.032,47.225l-5.118-2.3A4.622,4.622,0,0,1,6.626,38.9a4.4,4.4,0,0,1,5.859-2.352L17.6,38.852a4.619,4.619,0,0,1,2.288,6.021,4.4,4.4,0,0,1-5.859,2.352" transform="translate(1.923 12.431)" fill="#6c2ccc"/><path d="M13.477,38.836l-5.118-2.3a4.622,4.622,0,0,1-2.288-6.023,4.4,4.4,0,0,1,5.859-2.352l5.118,2.306a4.619,4.619,0,0,1,2.288,6.021,4.4,4.4,0,0,1-5.859,2.352" transform="translate(1.752 9.547)" fill="#6c2ccc"/><path d="M16.456,56.4a4.815,4.815,0,0,1-1.989-.43l-5.118-2.3a5.131,5.131,0,0,1-2.543-6.675,4.947,4.947,0,0,1,4.536-3.041,4.811,4.811,0,0,1,1.988.43l5.118,2.306a5.127,5.127,0,0,1,2.543,6.674A4.946,4.946,0,0,1,16.456,56.4ZM11.342,44.95a3.948,3.948,0,0,0-3.616,2.433A4.126,4.126,0,0,0,9.76,52.754l5.118,2.3a3.821,3.821,0,0,0,1.578.342,3.948,3.948,0,0,0,3.616-2.433A4.122,4.122,0,0,0,18.038,47.6L12.92,45.292A3.817,3.817,0,0,0,11.342,44.95Z" transform="translate(2.12 15.281)" fill="#fff"/><path d="M15.816,48.11a4.814,4.814,0,0,1-1.989-.43l-5.118-2.3A5.131,5.131,0,0,1,6.166,38.7,4.947,4.947,0,0,1,10.7,35.66a4.811,4.811,0,0,1,1.988.43L17.809,38.4a5.127,5.127,0,0,1,2.543,6.674A4.946,4.946,0,0,1,15.816,48.11ZM10.7,36.66a3.948,3.948,0,0,0-3.616,2.433A4.126,4.126,0,0,0,9.12,44.464l5.118,2.3a3.821,3.821,0,0,0,1.578.342,3.948,3.948,0,0,0,3.616-2.433A4.122,4.122,0,0,0,17.4,39.307L12.28,37A3.818,3.818,0,0,0,10.7,36.66Z" transform="translate(1.923 12.431)" fill="#fff"/><path d="M15.261,39.721a4.815,4.815,0,0,1-1.989-.43l-5.118-2.3a5.131,5.131,0,0,1-2.543-6.675,4.947,4.947,0,0,1,4.536-3.041,4.811,4.811,0,0,1,1.988.43l5.118,2.306A5.127,5.127,0,0,1,19.8,36.68,4.946,4.946,0,0,1,15.261,39.721Zm-5.114-11.45A3.948,3.948,0,0,0,6.531,30.7a4.126,4.126,0,0,0,2.034,5.371l5.118,2.3a3.821,3.821,0,0,0,1.578.342,3.948,3.948,0,0,0,3.616-2.433,4.122,4.122,0,0,0-2.034-5.369l-5.118-2.306A3.817,3.817,0,0,0,10.147,28.271Z" transform="translate(1.752 9.547)" fill="#fff"/></g><g transform="translate(-160.583 -550.884)"><g transform="translate(-1.716 9.794)"><g transform="translate(3.428 5.485)"><path d="M4258.656-2253.6a1,1,0,0,1-.309-.049l-17.459-5.677a1,1,0,0,1-.642-1.26,1,1,0,0,1,1.26-.642l17.459,5.677a1,1,0,0,1,.642,1.26A1,1,0,0,1,4258.656-2253.6Z" transform="matrix(1, -0.017, 0.017, 1, -4145.949, 2855.81)" fill="#6c2ccc"/><path d="M4297.213-2241.3a.994.994,0,0,1-.324-.054l-38.069-13.024a1,1,0,0,1-.623-1.27,1,1,0,0,1,1.27-.622l38.069,13.024a1,1,0,0,1,.623,1.27A1,1,0,0,1,4297.213-2241.3Z" transform="matrix(1, -0.017, 0.017, 1, -4138.034, 2859.239)" fill="#6c2ccc"/></g><g transform="translate(363.211 11.865) rotate(34)"><path d="M11.095,4.607a1,1,0,0,1-.309-.049L-.309.951A1,1,0,0,1-.951-.309,1,1,0,0,1,.309-.951L11.4,2.656a1,1,0,0,1-.309,1.951Z" transform="matrix(1, -0.017, 0.017, 1, 55.155, 521.743)" fill="#6c2ccc"/><path d="M24.191,9.277a1,1,0,0,1-.324-.054L-.324.946A1,1,0,0,1-.946-.324,1,1,0,0,1,.324-.946L24.514,7.33a1,1,0,0,1-.324,1.946Z" transform="matrix(1, -0.017, 0.017, 1, 71.642, 526.87)" fill="#6c2ccc"/></g><g transform="matrix(0.985, -0.174, 0.174, 0.985, -88.093, 39.659)"><path d="M4245.43-2228.394a1.033,1.033,0,0,1-.106-.005l-6.712-.705a1,1,0,0,1-.89-1.1,1,1,0,0,1,.994-.9,1.031,1.031,0,0,1,.105.005l6.712.705a1,1,0,0,1,.89,1.1A1,1,0,0,1,4245.43-2228.394Z" transform="translate(-4186 2782)" fill="#6c2ccc"/><path d="M4297.742-2224.564c-.027,0-.055,0-.083,0l-28.771-2.379a1,1,0,0,1-.914-1.079,1,1,0,0,1,1-.917c.027,0,.055,0,.083,0l28.771,2.379a1,1,0,0,1,.914,1.079A1,1,0,0,1,4297.742-2224.564Z" transform="translate(-4183.077 2783.67)" fill="#6c2ccc"/><path d="M4264.28-2226.516a1.014,1.014,0,0,1-.13-.008l-11.353-1.469a1,1,0,0,1-.863-1.12,1,1,0,0,1,1.12-.863l11.353,1.469a1,1,0,0,1,.863,1.12A1,1,0,0,1,4264.28-2226.516Z" transform="matrix(1, -0.017, 0.017, 1, -4148.576, 2856.195)" fill="#6c2ccc"/></g><g transform="translate(10.528 9)"><path d="M4247.488-2181.48a1,1,0,0,1-.944-.671,1,1,0,0,1,.615-1.273l9.452-3.3a1,1,0,0,1,1.273.615,1,1,0,0,1-.615,1.273l-9.452,3.3A1,1,0,0,1,4247.488-2181.48Z" transform="matrix(0.995, 0.105, -0.105, 0.995, -4392.168, 2326.588)" fill="#6c2ccc"/><path d="M4269.115-2184.634a1,1,0,0,1-.949-.684,1,1,0,0,1,.632-1.265l13.192-4.4a1,1,0,0,1,1.265.633,1,1,0,0,1-.632,1.265l-13.192,4.4A1,1,0,0,1,4269.115-2184.634Z" transform="translate(-4367.557 2401.266) rotate(5)" fill="#6c2ccc"/><path d="M4286.245-2189.2a1,1,0,0,1-.981-.81,1,1,0,0,1,.792-1.172l22.468-4.345a1,1,0,0,1,1.172.792,1,1,0,0,1-.792,1.172l-22.468,4.345A1,1,0,0,1,4286.245-2189.2Z" transform="matrix(0.999, -0.035, 0.035, 0.999, -4111.652, 2929.55)" fill="#6c2ccc"/></g><path d="M4288.343-2274.246a1,1,0,0,1-.568-.178l-8.214-5.687a1,1,0,0,1-.253-1.392,1,1,0,0,1,1.392-.253l8.214,5.687a1,1,0,0,1,.253,1.392A1,1,0,0,1,4288.343-2274.246Z" transform="translate(-4185 2782)" fill="#6c2ccc"/><path d="M4304.337-2264.2a1,1,0,0,1-.566-.176l-11.641-8.014a1,1,0,0,1-.257-1.391,1,1,0,0,1,1.391-.257l11.641,8.014a1,1,0,0,1,.257,1.391A1,1,0,0,1,4304.337-2264.2Z" transform="translate(-4185 2782.404)" fill="#6c2ccc"/><path d="M4318.365-2254.2a.993.993,0,0,1-.6-.2l-9.27-7.037a1,1,0,0,1-.192-1.4,1,1,0,0,1,1.4-.192l9.27,7.037a1,1,0,0,1,.192,1.4A1,1,0,0,1,4318.365-2254.2Z" transform="translate(-4184.71 2782.782)" fill="#6c2ccc"/><g transform="translate(275.129 486.363) rotate(146)"><path d="M0,4.607a1,1,0,0,1-.951-.691,1,1,0,0,1,.642-1.26L10.786-.951a1,1,0,0,1,1.26.642A1,1,0,0,1,11.4.951L.309,4.558A1,1,0,0,1,0,4.607Z" transform="matrix(1, 0.017, -0.017, 1, 0.063, 9.796)" fill="#6c2ccc"/><path d="M0,9.277A1,1,0,0,1-.946,8.6,1,1,0,0,1-.324,7.33L23.867-.946a1,1,0,0,1,1.27.622,1,1,0,0,1-.622,1.27L.324,9.223A1,1,0,0,1,0,9.277Z" transform="matrix(1, 0.017, -0.017, 1, 16.632, 0)" fill="#6c2ccc"/></g></g><g transform="translate(252.312 510.861)"><g transform="translate(3.491 5.713)"><path d="M0,6.677a1,1,0,0,1-.951-.691,1,1,0,0,1,.642-1.26L17.15-.951a1,1,0,0,1,1.26.642,1,1,0,0,1-.642,1.26L.309,6.628A1,1,0,0,1,0,6.677Z" transform="matrix(-1, -0.017, 0.017, -1, 79.167, 26.463)" fill="#6c2ccc"/><path d="M0,14.025a1,1,0,0,1-.946-.677,1,1,0,0,1,.622-1.27L37.745-.946a1,1,0,0,1,1.27.622,1,1,0,0,1-.622,1.27L.324,13.971A1,1,0,0,1,0,14.025Z" transform="matrix(-1, -0.017, 0.017, -1, 53.093, 41.879)" fill="#6c2ccc"/></g><g transform="translate(8.551 12.574) rotate(10)"><path d="M4238.715-2228.394a1,1,0,0,1-.995-.9,1,1,0,0,1,.9-1.091l7.314-.705c.033,0,.065,0,.1,0a1,1,0,0,1,.995.9,1,1,0,0,1-.9,1.091l-7.314.705C4238.779-2228.4,4238.747-2228.394,4238.715-2228.394Z" transform="translate(-4164.326 2280.933)" fill="#6c2ccc"/><path d="M4268.97-2224.11a1,1,0,0,1-.994-.9,1,1,0,0,1,.9-1.094l28.585-2.833a.985.985,0,0,1,.1,0,1,1,0,0,1,.994.9,1,1,0,0,1-.9,1.094l-28.585,2.833A.985.985,0,0,1,4268.97-2224.11Z" transform="translate(-4244.237 2281.663)" fill="#6c2ccc"/><path d="M0,2.3a1,1,0,0,1-.992-.881A1,1,0,0,1-.119.312l10.912-1.3a1,1,0,0,1,1.112.874A1,1,0,0,1,11.031.993L.119,2.3A1.011,1.011,0,0,1,0,2.3Z" transform="translate(69.153 53.72) rotate(-179)" fill="#6c2ccc"/></g><path d="M14.473,6.294a1,1,0,0,1-.343-.061L-.344.939a1,1,0,0,1-.6-1.283,1,1,0,0,1,1.283-.6L14.816,4.355a1,1,0,0,1-.344,1.939Z" transform="matrix(-0.995, 0.105, -0.105, -0.995, 80.187, 113.601)" fill="#6c2ccc"/><path d="M14.045,5.721a1,1,0,0,1-.319-.052L-.319.948A1,1,0,0,1-.948-.319,1,1,0,0,1,.319-.948l14.045,4.72a1,1,0,0,1-.318,1.948Z" transform="matrix(-0.996, 0.087, -0.087, -0.996, 59.535, 108.625)" fill="#6c2ccc"/><path d="M19.322,4.869a1,1,0,0,1-.2-.02L-.2.981A1,1,0,0,1-.981-.2,1,1,0,0,1,.2-.981L19.517,2.888a1,1,0,0,1-.2,1.981Z" transform="matrix(-0.999, -0.035, 0.035, -0.999, 37.622, 103.336)" fill="#6c2ccc"/><path d="M4280.13-2273.767a1,1,0,0,1-.823-.43,1,1,0,0,1,.252-1.392l8.891-6.167a1,1,0,0,1,1.392.252,1,1,0,0,1-.252,1.392l-8.891,6.167A1,1,0,0,1,4280.13-2273.767Z" transform="translate(-4248.729 2280.933)" fill="#6c2ccc"/><path d="M4292.7-2263.4a1,1,0,0,1-.83-.44,1,1,0,0,1,.269-1.388l13.05-8.811a1,1,0,0,1,1.388.269,1,1,0,0,1-.269,1.388l-13.05,8.811A1,1,0,0,1,4292.7-2263.4Z" transform="translate(-4278.023 2281.338)" fill="#6c2ccc"/><path d="M4309.1-2253.738a1,1,0,0,1-.834-.448,1,1,0,0,1,.281-1.386l11.325-7.5a1,1,0,0,1,1.386.281,1,1,0,0,1-.281,1.386l-11.325,7.5A1,1,0,0,1,4309.1-2253.738Z" transform="translate(-4309.096 2280.933)" fill="#6c2ccc"/></g></g></g></svg>