<svg xmlns="http://www.w3.org/2000/svg" width="353" height="3.094" viewBox="0 0 353 3.094">
  <g id="グループ_1141" data-name="グループ 1141" transform="translate(1.5 1.5)">
    <path id="線_103" data-name="線 103" d="M233.333,1.5H0A1.5,1.5,0,0,1-1.5,0,1.5,1.5,0,0,1,0-1.5H233.333a1.5,1.5,0,0,1,1.5,1.5A1.5,1.5,0,0,1,233.333,1.5Z" fill="#1d0c3d"/>
    <path id="線_104" data-name="線 104" d="M17.886,1.594h-.008L-.008,1.5A1.5,1.5,0,0,1-1.5-.008,1.5,1.5,0,0,1,.008-1.5l17.886.094a1.5,1.5,0,0,1-.008,3Z" transform="translate(289.837)" fill="#1d0c3d"/>
    <path id="線_105" data-name="線 105" d="M6.5,1.5H0A1.5,1.5,0,0,1-1.5,0,1.5,1.5,0,0,1,0-1.5H6.5A1.5,1.5,0,0,1,8,0,1.5,1.5,0,0,1,6.5,1.5Z" transform="translate(319.106 0.094)" fill="#1d0c3d"/>
    <path id="線_106" data-name="線 106" d="M2.439,1.5H0A1.5,1.5,0,0,1-1.5,0,1.5,1.5,0,0,1,0-1.5H2.439A1.5,1.5,0,0,1,3.939,0,1.5,1.5,0,0,1,2.439,1.5Z" transform="translate(347.561)" fill="#1d0c3d"/>
    <path id="線_107" data-name="線 107" d="M32.52,1.5H0A1.5,1.5,0,0,1-1.5,0,1.5,1.5,0,0,1,0-1.5H32.52A1.5,1.5,0,0,1,34.02,0,1.5,1.5,0,0,1,32.52,1.5Z" transform="translate(244.309)" fill="#1d0c3d"/>
    <path id="線_108" data-name="線 108" d="M7.317,1.5H0A1.5,1.5,0,0,1-1.5,0,1.5,1.5,0,0,1,0-1.5H7.317A1.5,1.5,0,0,1,8.817,0,1.5,1.5,0,0,1,7.317,1.5Z" transform="translate(332.927)" fill="#1d0c3d"/>
  </g>
</svg>
