<svg xmlns="http://www.w3.org/2000/svg" viewBox="0 0 362 158.61"><g id="レイヤー_2" data-name="レイヤー 2"><g id="レイヤー_1-2" data-name="レイヤー 1"><polygon points="362 142.88 323.53 136.47 323.53 141.88 0 141.88 0 143.88 323.53 143.88 323.53 149.28 362 142.88"/><path d="M0,0H20.46Q35.25,0,42,9.2T48.7,38.66Q48.7,67,35.18,75.29q-6.8,3.78-19.64,3.77v63.05H0ZM15.54,62.68q9.63,0,13.29-4.79t3.73-17.3Q32.56,27.88,29,22T17.7,16.11H15.54Z"/><path d="M48.7,95.28h8.22v5.56a15.7,15.7,0,0,1,4.18-5,10.66,10.66,0,0,1,5.47-1.64v8.62a9.54,9.54,0,0,0-1.46-.13q-4.44,0-6.33,2.28c-1.24,1.49-1.86,4.11-1.86,7.84v27H48.7Z"/><path d="M97.87,117.94q0,22.62-14,22.62t-14-23q0-23.05,13.95-23a13.39,13.39,0,0,1,6.27,1.38,10.91,10.91,0,0,1,4.37,4.27A22.33,22.33,0,0,1,97,107.47,56.56,56.56,0,0,1,97.87,117.94Zm-8.53-.21q0-8.79-1.17-12.24C87.4,103.17,86,102,84,102s-3.35,1.15-4.18,3.45-1.16,6.3-1.16,12,.39,9.71,1.16,12,2.23,3.45,4.18,3.45,3.32-1.13,4.09-3.4S89.34,123.44,89.34,117.73Z"/><path d="M121.84,95.28h8.27v46q0,8.27-1.64,11.46-3,5.85-12.1,5.86-6,0-9.39-3.41a12.49,12.49,0,0,1-3.45-9.26l0-1.38h8q0,7.11,5.3,7.11c1.92,0,3.23-.6,3.92-1.81s1.08-3.43,1.08-6.85v-8.57q-2.62,6.12-8.06,6.12-5.59,0-8.25-5.43t-2.65-17q0-12.24,2.55-18,2.49-5.56,8.31-5.56a7.11,7.11,0,0,1,4.48,1.34,15.78,15.78,0,0,1,3.62,4.74ZM122,118q0-16-5.52-16-2.62,0-3.83,3.6t-1.21,11.52q0,8.4,1.25,12.37,1.29,3.66,4.31,3.66,2.84,0,3.92-3.28C121.61,127.84,122,123.87,122,118Z"/><path d="M138.27,95.28h8.23v5.56a15.57,15.57,0,0,1,4.18-5,10.63,10.63,0,0,1,5.47-1.64v8.62a9.76,9.76,0,0,0-1.47-.13q-4.44,0-6.33,2.28c-1.24,1.49-1.85,4.11-1.85,7.84v27h-8.23Z"/><path d="M178.35,124.83H186q-.9,15.74-12.92,15.73a13.13,13.13,0,0,1-6.14-1.34,10.77,10.77,0,0,1-4.25-4.13,21.37,21.37,0,0,1-2.47-7.11,57.24,57.24,0,0,1-.8-10.25q0-11.81,3.3-17.49a11,11,0,0,1,10.18-5.69q13.4,0,13.4,23.61v1H167.5q0,14.31,5.68,14.3Q178.36,133.49,178.35,124.83Zm-.43-11.58c-.34-4.68-.88-7.76-1.59-9.22a3.77,3.77,0,0,0-3.62-2.46,3.7,3.7,0,0,0-3.62,2.46c-.72,1.46-1.25,4.54-1.59,9.22Z"/><path d="M209.9,96.19v7.71a10.48,10.48,0,0,0-6.33-2.24,5.41,5.41,0,0,0-2.07.39,5.58,5.58,0,0,0-1.66,1,4.89,4.89,0,0,0-1.11,1.6,4.66,4.66,0,0,0-.41,2q0,3.18,5.77,7.58A41.07,41.07,0,0,1,208,117.6a15.06,15.06,0,0,1,2.36,2.93,12.81,12.81,0,0,1,1.68,6.85,13.22,13.22,0,0,1-3.49,9.6,12.22,12.22,0,0,1-9.26,3.58,14.47,14.47,0,0,1-7.23-2.11v-8a11.46,11.46,0,0,0,6.76,2.67q5.64,0,5.64-5.56a6.13,6.13,0,0,0-1-3.57,10,10,0,0,0-1.51-1.71c-.69-.64-1.54-1.37-2.54-2.17a33.57,33.57,0,0,1-7.07-6.81,12.51,12.51,0,0,1-1.8-6.85,12.21,12.21,0,0,1,3.31-8.83,11.79,11.79,0,0,1,8.75-3.4A15.29,15.29,0,0,1,209.9,96.19Z"/><path d="M234.86,96.19v7.71a10.48,10.48,0,0,0-6.33-2.24,5.37,5.37,0,0,0-3.72,1.44,4.77,4.77,0,0,0-1.12,1.6,4.66,4.66,0,0,0-.41,2q0,3.18,5.77,7.58a41.07,41.07,0,0,1,3.88,3.36,15.54,15.54,0,0,1,2.37,2.93,12.81,12.81,0,0,1,1.68,6.85,13.27,13.27,0,0,1-3.49,9.6,12.26,12.26,0,0,1-9.26,3.58,14.48,14.48,0,0,1-7.24-2.11v-8a11.49,11.49,0,0,0,6.76,2.67q5.64,0,5.64-5.56a6.13,6.13,0,0,0-1-3.57,10,10,0,0,0-1.51-1.71c-.69-.64-1.53-1.37-2.54-2.17q-5.2-4-7.06-6.81a12.43,12.43,0,0,1-1.81-6.85,12.21,12.21,0,0,1,3.31-8.83,11.79,11.79,0,0,1,8.75-3.4A15.26,15.26,0,0,1,234.86,96.19Z"/><path d="M264.56,120.74a1.48,1.48,0,0,1-.26,1,1.36,1.36,0,0,1-1,.26,1.34,1.34,0,0,1-.94-.25,1.47,1.47,0,0,1-.25-1,1.44,1.44,0,0,1,.26-1,1.41,1.41,0,0,1,1-.26,1.35,1.35,0,0,1,.94.26A1.44,1.44,0,0,1,264.56,120.74Zm-.28,18.82a.33.33,0,0,1,0,.17.31.31,0,0,1-.15.12,1.2,1.2,0,0,1-.28.08,2.86,2.86,0,0,1-.46,0,2.68,2.68,0,0,1-.44,0,1.3,1.3,0,0,1-.29-.08.31.31,0,0,1-.15-.12.47.47,0,0,1,0-.17V125.48a.47.47,0,0,1,0-.17.39.39,0,0,1,.15-.13.92.92,0,0,1,.29-.08l.44,0,.46,0a.85.85,0,0,1,.28.08.39.39,0,0,1,.15.13.33.33,0,0,1,0,.17Z"/><path d="M280.53,139.56a.34.34,0,0,1,0,.17.31.31,0,0,1-.15.12,1.2,1.2,0,0,1-.28.08,2.76,2.76,0,0,1-.44,0,2.86,2.86,0,0,1-.46,0,1.2,1.2,0,0,1-.28-.08.31.31,0,0,1-.15-.12.34.34,0,0,1-.05-.17v-8.35a8.88,8.88,0,0,0-.2-2.13,4.15,4.15,0,0,0-.6-1.4,2.74,2.74,0,0,0-1-.9,3.25,3.25,0,0,0-1.47-.32,3.73,3.73,0,0,0-2.14.76,11.82,11.82,0,0,0-2.26,2.24v10.1a.33.33,0,0,1,0,.17.44.44,0,0,1-.15.12,1.2,1.2,0,0,1-.28.08,3,3,0,0,1-.46,0,2.59,2.59,0,0,1-.44,0,1.3,1.3,0,0,1-.29-.08.27.27,0,0,1-.15-.12.33.33,0,0,1,0-.17V125.48a.3.3,0,0,1,.19-.3.86.86,0,0,1,.27-.08l.43,0,.43,0a.79.79,0,0,1,.27.08.4.4,0,0,1,.13.13.33.33,0,0,1,0,.17v2a8.83,8.83,0,0,1,2.38-2,5,5,0,0,1,2.31-.6,5.31,5.31,0,0,1,2.34.46,4.12,4.12,0,0,1,1.53,1.26,5.13,5.13,0,0,1,.84,1.85,11.09,11.09,0,0,1,.26,2.56Z"/><path d="M295.14,137.47a3.28,3.28,0,0,1,0,.34,1.37,1.37,0,0,1-.05.25.93.93,0,0,1-.08.2,2.26,2.26,0,0,1-.26.29,4.68,4.68,0,0,1-.68.51,5.27,5.27,0,0,1-1.06.54,6.84,6.84,0,0,1-1.28.38,6.48,6.48,0,0,1-1.41.15,6.37,6.37,0,0,1-2.59-.49,4.87,4.87,0,0,1-1.89-1.44,6.72,6.72,0,0,1-1.16-2.35,11.94,11.94,0,0,1-.4-3.21,11.37,11.37,0,0,1,.49-3.52,6.64,6.64,0,0,1,1.35-2.39,5.26,5.26,0,0,1,2-1.38,6.62,6.62,0,0,1,2.45-.44,6.55,6.55,0,0,1,1.34.13,6.67,6.67,0,0,1,1.17.35,5.4,5.4,0,0,1,1,.5,3.74,3.74,0,0,1,.61.47,1.76,1.76,0,0,1,.26.3.57.57,0,0,1,.11.22,1.31,1.31,0,0,1,.06.27c0,.1,0,.22,0,.35a1.05,1.05,0,0,1-.13.63.36.36,0,0,1-.29.18.88.88,0,0,1-.53-.28c-.22-.18-.49-.39-.82-.61a6.68,6.68,0,0,0-1.2-.62,4.78,4.78,0,0,0-1.69-.28,3.58,3.58,0,0,0-3.12,1.56,7.77,7.77,0,0,0-1.1,4.49,10,10,0,0,0,.3,2.59,5.28,5.28,0,0,0,.85,1.85,3.41,3.41,0,0,0,1.34,1.11,4.73,4.73,0,0,0,3.44.07,7.51,7.51,0,0,0,1.24-.65,10,10,0,0,0,.88-.66,1.05,1.05,0,0,1,.52-.29.25.25,0,0,1,.17,0,.45.45,0,0,1,.11.17,1,1,0,0,1,.07.28A2.17,2.17,0,0,1,295.14,137.47Z"/><path d="M301.13,138.47a1.81,1.81,0,0,1-.29,1.21,1.48,1.48,0,0,1-1.06.3,1.43,1.43,0,0,1-1-.29,2.59,2.59,0,0,1,0-2.4,1.46,1.46,0,0,1,1.06-.3,1.42,1.42,0,0,1,1,.29A1.7,1.7,0,0,1,301.13,138.47Z"/><path d="M152.49,38.89v31h25.88v-31Zm23.88,14.5H166.15V40.89h10.22Zm-12.22-12.5v12.5h-9.66V40.89Zm-9.66,14.5h9.66v12.5h-9.66Zm11.66,12.5V55.39h10.22v12.5Z"/><polygon points="305.53 81.61 165.49 22.32 40.73 81.56 38.58 77.05 165.37 16.84 307.48 77 305.53 81.61"/></g></g></svg>