<svg xmlns="http://www.w3.org/2000/svg" width="122.103" height="53.496" viewBox="0 0 122.103 53.496">
  <g id="ヘッダーロゴ" transform="translate(24.879 6)">
    <g id="レイヤー_1" data-name="レイヤー 1" transform="translate(-24.879 -6)">
      <path id="パス_1739" data-name="パス 1739" d="M114.261,1H0V-1H114.261Z" transform="translate(0 48.194)" fill="#fff"/>
      <path id="パス_1724" data-name="パス 1724" d="M336.506,138.632l-12.976,2.159V136.47Z" transform="translate(-214.403 -90.438)" fill="#fff"/>
      <path id="パス_1725" data-name="パス 1725" d="M0,0H6.9q4.989,0,7.265,3.1t2.26,9.937q0,9.559-4.56,12.355a13.853,13.853,0,0,1-6.625,1.272V47.934H0ZM5.242,21.142q3.248,0,4.483-1.616t1.258-5.835q0-4.287-1.2-6.27A4.133,4.133,0,0,0,5.97,5.434H5.242Z" fill="#fff"/>
      <path id="パス_1726" data-name="パス 1726" d="M48.7,94.564h2.773V96.44a5.3,5.3,0,0,1,1.41-1.687,3.6,3.6,0,0,1,1.845-.553v2.908a3.219,3.219,0,0,0-.492-.044,2.63,2.63,0,0,0-2.135.769,4.22,4.22,0,0,0-.627,2.644v9.107H48.7Z" transform="translate(-32.273 -62.426)" fill="#fff"/>
      <path id="パス_1727" data-name="パス 1727" d="M79.314,102.443q0,7.63-4.722,7.63t-4.722-7.758q0-7.775,4.705-7.758a4.516,4.516,0,0,1,2.115.465,3.68,3.68,0,0,1,1.474,1.44,7.532,7.532,0,0,1,.857,2.449A19.078,19.078,0,0,1,79.314,102.443Zm-2.877-.071a14.637,14.637,0,0,0-.395-4.129,1.432,1.432,0,0,0-2.816-.014,13.65,13.65,0,0,0-.391,4.048,14.369,14.369,0,0,0,.391,4.048,1.465,1.465,0,0,0,1.41,1.164,1.425,1.425,0,0,0,1.38-1.147,13.406,13.406,0,0,0,.422-3.97Z" transform="translate(-46.303 -62.662)" fill="#fff"/>
      <path id="パス_1728" data-name="パス 1728" d="M109.269,94.8h2.789v15.516a9.34,9.34,0,0,1-.553,3.865q-1.012,1.973-4.081,1.977a4.266,4.266,0,0,1-3.167-1.15,4.213,4.213,0,0,1-1.164-3.123v-.465h2.7q0,2.4,1.788,2.4a1.388,1.388,0,0,0,1.322-.611,5.077,5.077,0,0,0,.364-2.311V108a2.892,2.892,0,0,1-2.719,2.064,2.934,2.934,0,0,1-2.783-1.832,13.714,13.714,0,0,1-.894-5.734,15.935,15.935,0,0,1,.86-6.071,2.877,2.877,0,0,1,2.8-1.875,2.4,2.4,0,0,1,1.511.452,5.323,5.323,0,0,1,1.221,1.6Zm.054,7.663q0-5.4-1.862-5.4-.884,0-1.292,1.214a13.307,13.307,0,0,0-.408,3.886,15.053,15.053,0,0,0,.422,4.172q.435,1.235,1.454,1.235a1.357,1.357,0,0,0,1.322-1.106A14.64,14.64,0,0,0,109.323,102.462Z" transform="translate(-68.172 -62.66)" fill="#fff"/>
      <path id="パス_1729" data-name="パス 1729" d="M138.27,94.564h2.776V96.44a5.252,5.252,0,0,1,1.41-1.687A3.586,3.586,0,0,1,144.3,94.2v2.908a3.29,3.29,0,0,0-.5-.044,2.63,2.63,0,0,0-2.135.769,4.222,4.222,0,0,0-.624,2.644v9.107H138.27Z" transform="translate(-91.631 -62.426)" fill="#fff"/>
      <path id="パス_1730" data-name="パス 1730" d="M165.8,104.755h2.58q-.3,5.309-4.358,5.306a4.429,4.429,0,0,1-2.071-.452,3.633,3.633,0,0,1-1.434-1.393,7.208,7.208,0,0,1-.833-2.4,19.307,19.307,0,0,1-.27-3.457,12.111,12.111,0,0,1,1.113-5.9,3.71,3.71,0,0,1,3.434-1.919q4.52,0,4.52,7.964v.337h-6.341q0,4.827,1.916,4.823Q165.806,107.676,165.8,104.755Zm-.145-3.906a10.188,10.188,0,0,0-.536-3.11,1.272,1.272,0,0,0-1.221-.83,1.248,1.248,0,0,0-1.221.83,10.081,10.081,0,0,0-.536,3.11Z" transform="translate(-105.645 -62.649)" fill="#fff"/>
      <path id="パス_1731" data-name="パス 1731" d="M197.064,94.879v2.6a3.535,3.535,0,0,0-2.135-.756,1.825,1.825,0,0,0-.7.132,1.882,1.882,0,0,0-.56.337,1.649,1.649,0,0,0-.374.54,1.572,1.572,0,0,0-.138.675q0,1.073,1.946,2.557a13.853,13.853,0,0,1,1.319,1.137,5.08,5.08,0,0,1,.8.988,4.321,4.321,0,0,1,.567,2.311,4.459,4.459,0,0,1-1.177,3.238,4.122,4.122,0,0,1-3.123,1.208,4.881,4.881,0,0,1-2.439-.712v-2.7a3.865,3.865,0,0,0,2.28.9,1.67,1.67,0,0,0,1.9-1.875,2.068,2.068,0,0,0-.337-1.2,3.373,3.373,0,0,0-.509-.577c-.233-.216-.519-.462-.857-.732a11.324,11.324,0,0,1-2.385-2.3,4.22,4.22,0,0,1-.607-2.311,4.118,4.118,0,0,1,1.116-2.978,3.977,3.977,0,0,1,2.951-1.147,5.157,5.157,0,0,1,2.462.664Z" transform="translate(-126.265 -62.433)" fill="#fff"/>
      <path id="パス_1732" data-name="パス 1732" d="M222,94.905v2.6a3.535,3.535,0,0,0-2.135-.756,1.811,1.811,0,0,0-1.255.486,1.609,1.609,0,0,0-.378.54,1.572,1.572,0,0,0-.138.675q0,1.073,1.946,2.557a13.855,13.855,0,0,1,1.309,1.133,5.242,5.242,0,0,1,.8.988,4.321,4.321,0,0,1,.567,2.311,4.476,4.476,0,0,1-1.177,3.238,4.135,4.135,0,0,1-3.123,1.208,4.884,4.884,0,0,1-2.442-.712v-2.7a3.875,3.875,0,0,0,2.28.9,1.67,1.67,0,0,0,1.9-1.875,2.068,2.068,0,0,0-.337-1.2,3.374,3.374,0,0,0-.509-.577c-.233-.216-.516-.462-.857-.732a10.862,10.862,0,0,1-2.381-2.3,4.193,4.193,0,0,1-.611-2.311,4.118,4.118,0,0,1,1.116-2.978,3.977,3.977,0,0,1,2.951-1.147A5.147,5.147,0,0,1,222,94.905Z" transform="translate(-142.786 -62.46)" fill="#fff"/>
      <path id="パス_1733" data-name="パス 1733" d="M262.93,119.9a.5.5,0,0,1-.088.337.459.459,0,0,1-.337.088.452.452,0,0,1-.317-.084.5.5,0,0,1-.084-.337.486.486,0,0,1,.088-.337.476.476,0,0,1,.337-.088.455.455,0,0,1,.317.088.486.486,0,0,1,.084.334Zm-.094,6.348a.111.111,0,0,1,0,.057.1.1,0,0,1-.051.04.4.4,0,0,1-.094.027.966.966,0,0,1-.155,0,.9.9,0,0,1-.148,0,.438.438,0,0,1-.1-.027.1.1,0,0,1-.051-.04.159.159,0,0,1,0-.057V121.5a.159.159,0,0,1,0-.057.132.132,0,0,1,.051-.044.31.31,0,0,1,.1-.027h.3a.287.287,0,0,1,.094.027.131.131,0,0,1,.051.044.111.111,0,0,1,0,.057Z" transform="translate(-173.693 -79.179)" fill="#fff"/>
      <path id="パス_1734" data-name="パス 1734" d="M273.067,129.83a.115.115,0,0,1,0,.057.1.1,0,0,1-.051.04.406.406,0,0,1-.094.027.934.934,0,0,1-.148,0,.965.965,0,0,1-.155,0,.4.4,0,0,1-.094-.027.1.1,0,0,1-.051-.04.114.114,0,0,1-.017-.057v-2.816a2.994,2.994,0,0,0-.067-.718,1.4,1.4,0,0,0-.2-.472.924.924,0,0,0-.337-.3,1.1,1.1,0,0,0-.5-.108,1.258,1.258,0,0,0-.722.256,3.988,3.988,0,0,0-.762.756v3.407a.111.111,0,0,1,0,.057.148.148,0,0,1-.051.04.4.4,0,0,1-.094.027,1.011,1.011,0,0,1-.155,0,.875.875,0,0,1-.148,0,.439.439,0,0,1-.1-.027.091.091,0,0,1-.051-.04.111.111,0,0,1,0-.057v-4.749a.1.1,0,0,1,.064-.1.289.289,0,0,1,.091-.027h.29a.266.266,0,0,1,.091.027.135.135,0,0,1,.044.044.112.112,0,0,1,0,.057v.675a2.978,2.978,0,0,1,.8-.675,1.687,1.687,0,0,1,.779-.2,1.791,1.791,0,0,1,.789.155,1.39,1.39,0,0,1,.516.425,1.731,1.731,0,0,1,.283.624,3.74,3.74,0,0,1,.088.863Z" transform="translate(-178.444 -82.756)" fill="#fff"/>
      <path id="パス_1735" data-name="パス 1735" d="M287.942,129.146a1.123,1.123,0,0,1,0,.115.464.464,0,0,1-.017.084.312.312,0,0,1-.027.067.762.762,0,0,1-.088.1,1.577,1.577,0,0,1-.229.172,1.777,1.777,0,0,1-.358.182,2.307,2.307,0,0,1-.432.128,2.186,2.186,0,0,1-.476.051,2.149,2.149,0,0,1-.874-.165,1.643,1.643,0,0,1-.638-.486,2.267,2.267,0,0,1-.391-.793,4.027,4.027,0,0,1-.135-1.083,3.836,3.836,0,0,1,.165-1.187,2.24,2.24,0,0,1,.455-.806,1.774,1.774,0,0,1,.675-.465,2.233,2.233,0,0,1,.826-.148,2.209,2.209,0,0,1,.452.044,2.251,2.251,0,0,1,.395.118,1.821,1.821,0,0,1,.337.169,1.262,1.262,0,0,1,.206.159.594.594,0,0,1,.088.1.192.192,0,0,1,.037.074.439.439,0,0,1,.02.091v.118a.354.354,0,0,1-.044.212.121.121,0,0,1-.1.061.3.3,0,0,1-.179-.094c-.074-.061-.165-.132-.277-.206a2.253,2.253,0,0,0-.4-.209,1.612,1.612,0,0,0-.57-.094,1.208,1.208,0,0,0-1.052.526,2.621,2.621,0,0,0-.371,1.514,3.373,3.373,0,0,0,.1.874,1.781,1.781,0,0,0,.287.624,1.15,1.15,0,0,0,.452.374,1.6,1.6,0,0,0,1.16.024,2.534,2.534,0,0,0,.418-.219,3.374,3.374,0,0,0,.3-.223.354.354,0,0,1,.175-.1.084.084,0,0,1,.057,0,.151.151,0,0,1,.037.057.336.336,0,0,1,.024.094A.734.734,0,0,1,287.942,129.146Z" transform="translate(-188.391 -82.777)" fill="#fff"/>
      <path id="パス_1736" data-name="パス 1736" d="M299.377,137.483a.61.61,0,0,1-.1.408.5.5,0,0,1-.358.1.482.482,0,0,1-.337-.1.873.873,0,0,1,0-.81.492.492,0,0,1,.358-.1.479.479,0,0,1,.337.1A.573.573,0,0,1,299.377,137.483Z" transform="translate(-197.806 -90.777)" fill="#fff"/>
      <path id="パス_1737" data-name="パス 1737" d="M152.49,38.89V49.346h8.729V38.89Zm8.055,4.891H157.1V39.565h3.447Zm-4.122-4.216v4.216h-3.258V39.565Zm-3.258,4.891h3.258v4.216h-3.258Zm3.933,4.216V44.455h3.447v4.216Z" transform="translate(-101.055 -25.772)" fill="#fff"/>
      <path id="パス_1738" data-name="パス 1738" d="M128.623,38.687l-47.236-20L39.305,38.67l-.725-1.521L81.347,16.84,129.28,37.132Z" transform="translate(-25.567 -11.16)" fill="#fff"/>
    </g>
  </g>
</svg>
