<svg xmlns="http://www.w3.org/2000/svg" width="27.962" height="21.891" viewBox="0 0 27.962 21.891">
  <g id="Icon_feather-mail" data-name="Icon feather-mail" transform="translate(1.5 1.5)">
    <path id="パス_4" data-name="パス 4" d="M5.5,4.5h19.97a3.935,3.935,0,0,1,4,3.861V22.529a3.935,3.935,0,0,1-4,3.861H5.5a3.935,3.935,0,0,1-4-3.861V8.361A3.935,3.935,0,0,1,5.5,4.5Zm19.97,18.891a.949.949,0,0,0,1-.861V8.361a.949.949,0,0,0-1-.861H5.5a.949.949,0,0,0-1,.861V22.529a.949.949,0,0,0,1,.861Z" transform="translate(-3 -6)" fill="#fff"/>
    <path id="パス_5" data-name="パス 5" d="M15.481,21a1.5,1.5,0,0,1-.966-.352L2.034,10.148a1.5,1.5,0,1,1,1.931-2.3L15.481,17.54,27,7.852a1.5,1.5,0,1,1,1.931,2.3l-12.481,10.5A1.5,1.5,0,0,1,15.481,21Z" transform="translate(-3 -6)" fill="#fff"/>
  </g>
</svg>
