<svg xmlns="http://www.w3.org/2000/svg" width="22.969" height="21.89" viewBox="0 0 22.969 21.89">
  <path id="Icon_awesome-phone-alt" data-name="Icon awesome-phone-alt" d="M22.314,15.469,17.29,13.417a1.112,1.112,0,0,0-1.256.3L13.808,16.3A16.259,16.259,0,0,1,5.859,8.727L8.578,6.606a.993.993,0,0,0,.31-1.2L6.734.621A1.1,1.1,0,0,0,5.5.026L.834,1.052a1.038,1.038,0,0,0-.834,1C0,13.019,9.327,21.891,20.816,21.891a1.067,1.067,0,0,0,1.05-.8l1.077-4.446a1.027,1.027,0,0,0-.629-1.18Z" transform="translate(0 0)" fill="#fff"/>
</svg>
