<svg xmlns="http://www.w3.org/2000/svg" width="147.485" height="36.407" viewBox="0 0 147.485 36.407"><g transform="translate(-138.334 -912.838)"><path d="M113.9,38.9h14.07V22.054H113.9Zm12.982-8.969h-5.557V23.141h5.557Zm-6.644,0H114.99V23.141h5.251Zm-5.251,1.087h5.251v6.8H114.99Zm6.338,0h5.557v6.8h-5.557Z" transform="translate(87.011 908.934)"/><path d="M128.473,39.4H113.4V21.554h15.07Zm-14.07-1h13.07V22.554H114.4Zm12.982-.087h-6.557v-7.8h6.557Zm-5.557-1h4.557v-5.8h-4.557Zm-1.087,1H114.49v-7.8h6.251Zm-5.251-1h4.251v-5.8H115.49Zm11.9-6.882h-6.557V22.641h6.557Zm-5.557-1h4.557V23.641h-4.557Zm-1.087,1H114.49V22.641h6.251Zm-5.251-1h4.251V23.641H115.49Z" transform="translate(87.011 908.934)" fill="rgba(0,0,0,0)"/><path d="M68.916,0,0,32.725,1.166,35.18l67.814-32.2L145.1,35.2l1.06-2.5Z" transform="translate(139 913.385)"/><path d="M68.9-.548l77.915,32.984-1.45,3.423L68.991,3.526.928,35.846-.666,32.488Zm76.6,33.515L68.928.548.666,32.963,1.4,34.514,68.968,2.43l75.871,32.118Z" transform="translate(139 913.385)" fill="rgba(0,0,0,0)"/></g></svg>