<?xml version="1.0" encoding="utf-8"?>
<!-- Generator: Adobe Illustrator 26.0.3, SVG Export Plug-In . SVG Version: 6.00 Build 0)  -->
<svg version="1.1" id="レイヤー_1" xmlns="http://www.w3.org/2000/svg" xmlns:xlink="http://www.w3.org/1999/xlink" x="0px"
	 y="0px" viewBox="0 0 280.8 144.6" style="enable-background:new 0 0 280.8 144.6;" xml:space="preserve">
<style type="text/css">
	.st0{fill:none;stroke:#6C2CCC;stroke-width:2.0003;stroke-linecap:round;stroke-miterlimit:4.0006;}
	.st1{fill:none;stroke:#6C2CCC;stroke-width:2.0005;stroke-linecap:round;stroke-miterlimit:4.001;}
	.st2{fill:none;stroke:#6C2CCC;stroke-width:2.0008;stroke-linecap:round;stroke-miterlimit:4.0016;}
	.st3{fill:none;stroke:#6C2CCC;stroke-width:2.001;stroke-linecap:round;stroke-miterlimit:4.0021;}
	.st4{fill:none;stroke:#6C2CCC;stroke-width:2;stroke-linecap:round;}
	.st5{fill:none;stroke:#6C2CCC;stroke-width:1.9992;stroke-linecap:round;stroke-miterlimit:3.9985;}
	.st6{fill:none;stroke:#6C2CCC;stroke-width:1.9996;stroke-linecap:round;stroke-miterlimit:3.9992;}
	.st7{clip-path:url(#SVGID_00000016772716436197552770000016863450319749521823_);}
	.st8{fill:#6C2CCC;}
	.st9{fill:#FFFFFF;}
	.st10{fill:none;stroke:#FFFFFF;}
</style>
<g id="グループ_1256" transform="translate(-55.585 -483.303)">
	<g id="グループ_1252">
		<g id="グループ_1194" transform="translate(-1.716 9.794)">
			<g id="グループ_1214" transform="translate(3.428 5.485)">
				<path id="パス_2212" class="st0" d="M56.8,523.4l17.6,5.4"/>
				<path id="パス_2213" class="st0" d="M82.8,531.5l38.3,12.4"/>
			</g>
			<g id="グループ_1215" transform="translate(363.211 11.865) rotate(34)">
				<path id="パス_2212-2" class="st0" d="M55.2,521.7l11.2,3.4"/>
				<path id="パス_2213-2" class="st0" d="M71.6,526.9l24.3,7.9"/>
			</g>
			<g id="グループ_1221" transform="matrix(0.985, -0.174, 0.174, 0.985, -88.093, 39.659)">
				<path id="パス_2214" class="st1" d="M52.7,551.9l6.7,0.7"/>
				<path id="パス_2215" class="st1" d="M85.9,555.7l29.5,3.9"/>
				<path id="パス_2216" class="st2" d="M67.4,553.7l11.4,1.3"/>
			</g>
			<g id="グループ_1220" transform="translate(10.528 9)">
				<path id="パス_2217" class="st3" d="M57.1,600.7l9.8-2.3"/>
				<path id="パス_2218" class="st4" d="M73.3,596.6l16-3.8"/>
				<path id="パス_2219" class="st5" d="M93.7,591.5l22.3-5.1"/>
			</g>
			<g id="グループ_1216">
				<path id="パス_2220" class="st4" d="M95.1,501.1l8.2,5.7"/>
				<path id="パス_2221" class="st4" d="M107.7,509.2l11.6,8"/>
				<path id="パス_2222" class="st4" d="M124.4,520.5l9.3,7"/>
			</g>
			<g id="グループ_1217" transform="translate(275.129 486.363) rotate(146)">
				<path id="パス_2212-3" class="st0" d="M0,13.4L11.2,10"/>
				<path id="パス_2213-3" class="st0" d="M16.5,8.3l24.3-7.9"/>
			</g>
		</g>
		<g id="グループ_1195" transform="translate(252.312 510.861)">
			<g id="グループ_1222" transform="translate(3.491 5.713)">
				<path id="パス_2212-4" class="st0" d="M79.3,20.8l-17.6,5.4"/>
				<path id="パス_2213-4" class="st0" d="M53.3,28.9L15,41.2"/>
			</g>
			<g id="グループ_1223" transform="translate(8.551 12.574) rotate(10)">
				<path id="パス_2214-2" class="st4" d="M81.7,50.8l-7.3,0.7"/>
				<path id="パス_2215-2" class="st4" d="M53.3,53.7l-28.6,2.8"/>
				<path id="パス_2216-2" class="st4" d="M69.2,52.4l-10.9,1.1"/>
			</g>
			<path id="パス_2217-2" class="st3" d="M80.2,113.6l-15-3.7"/>
			<path id="パス_2218-2" class="st6" d="M59.5,108.6l-14.4-3.5"/>
			<path id="パス_2219-2" class="st5" d="M37.6,103.3l-19.2-4.5"/>
			<path id="パス_2220-2" class="st4" d="M40.3,0l-8.9,6.2"/>
			<path id="パス_2221-2" class="st4" d="M27.7,8.1l-13,8.8"/>
			<path id="パス_2222-2" class="st4" d="M11.3,18.7L0,26.2"/>
		</g>
	</g>
	<g id="グループ_1225" transform="translate(160.583 550.884)">
		<g>
			<defs>
				<rect id="SVGID_1_" x="0" y="0" width="68.8" height="77"/>
			</defs>
			<clipPath id="SVGID_00000059297504919147829530000012207941616794345896_">
				<use xlink:href="#SVGID_1_"  style="overflow:visible;"/>
			</clipPath>
			
				<g id="グループ_1224" transform="translate(0 0)" style="clip-path:url(#SVGID_00000059297504919147829530000012207941616794345896_);">
				<path id="パス_2224" class="st8" d="M37.1,76.4c-7.8,0-11.5-2.6-16.8-6.3c-0.8-0.5-1.6-1.1-2.4-1.7c-0.2-0.1-0.3-0.4-0.3-0.7
					l4.1-29.2c-2.6-0.8-13.4-4.2-17.3-5.8c-2.8-1.3-4.3-4.4-3.5-7.4c0.8-3.1,3.7-4.2,6.1-4.2c0.2,0,0.4,0,0.6,0
					c5.1,0.9,31.4,8.8,42.3,13.3c0.7-0.4,1.3-1.1,2.4-5.9c0.2-0.8,0.3-1.5,0.4-2.3c0.3-2,0.5-3.6,3.1-7.5c1.4-2.1,3.7-3.4,6.3-3.4
					c2.4,0,5,1,5.8,2.3c0.3,0.4,0.4,1,0.1,1.5c-5.1,11.4-7.9,39.6-8,39.9C60,59.5,55.8,75.1,40,76.3C39,76.3,38,76.4,37.1,76.4"/>
				<path id="パス_2225" class="st9" d="M62.1,16.1c3,0,5.9,1.6,5.3,2.9c-5.3,11.6-8,40.1-8,40.1s-4,15.3-19.5,16.5
					c-1,0.1-2,0.1-2.9,0.1c-8.7,0-12.2-3.4-18.9-7.8l4.2-29.8c0,0-13.4-4.2-17.8-6c-2.5-1.1-3.8-3.9-3.1-6.6c0.8-3,3.9-3.7,5.5-3.7
					c0.2,0,0.3,0,0.5,0c5,0.9,31.8,8.9,42.4,13.4c1.1-0.6,1.8-1.2,3-6.5c0.8-3.5-0.1-4.4,3.4-9.6C57.7,17.3,59.8,16.2,62.1,16.1
					 M62.1,14.8c-2.7,0.1-5.3,1.4-6.8,3.7c-2.8,4-3,5.7-3.2,7.8c-0.1,0.8-0.2,1.5-0.4,2.3c-0.9,3.8-1.4,4.9-1.9,5.3
					C38.6,29.3,12.7,21.5,7.7,20.6c0,0-0.1,0-0.1,0c-0.2,0-0.4,0-0.6,0c-2.5,0-5.8,1.2-6.7,4.7c-0.9,3.3,0.8,6.7,3.8,8.1l0.1,0
					C7.9,34.9,17.7,38,21,39.1l-4,28.6c-0.1,0.5,0.2,1,0.6,1.3c0.9,0.6,1.7,1.1,2.4,1.7c5.3,3.7,9.2,6.4,17.1,6.4c0.9,0,1.9,0,3-0.1
					c16.2-1.2,20.6-17.3,20.6-17.5c0-0.1,0-0.1,0-0.2c0-0.3,2.8-28.4,7.9-39.7c0.3-0.7,0.2-1.5-0.2-2.2
					C67.5,15.9,64.8,14.8,62.1,14.8"/>
				<path id="長方形_463" class="st8" d="M17.7,0.7h32.8c1.7,0,3.1,1.4,3.1,3.1v62.5c0,1.7-1.4,3.1-3.1,3.1H17.7
					c-1.7,0-3.1-1.4-3.1-3.1V3.8C14.5,2.1,15.9,0.7,17.7,0.7z"/>
				<path id="パス_2226" class="st9" d="M49.5,1.3c1.9,0,3.5,1.6,3.4,3.5v60.4c0,1.9-1.5,3.5-3.4,3.5H18.6c-1.9,0-3.5-1.6-3.4-3.5
					V4.9c0-1.9,1.5-3.5,3.4-3.5H49.5z M49.5,0H18.6c-2.7,0-4.8,2.2-4.7,4.9v60.4c0,2.7,2.1,4.8,4.7,4.9h30.9c2.7,0,4.8-2.2,4.7-4.9
					V4.9C54.2,2.2,52.1,0,49.5,0"/>
				<path id="パス_2227" class="st9" d="M48.3,59.6H19.9c-1.1,0-2-0.9-2-2.1V7.1c0-1.1,0.9-2,2-2.1h28.4c1.1,0,2,0.9,2,2.1v50.4
					C50.3,58.6,49.4,59.6,48.3,59.6"/>
				<path id="パス_2228" class="st9" d="M36.3,64.5c0,1.2-1,2.2-2.3,2.2c-1.2,0-2.2-1-2.2-2.3c0-1.2,1-2.2,2.2-2.2
					C35.3,62.2,36.3,63.3,36.3,64.5"/>
				<path id="パス_2229" class="st8" d="M16.8,70.8l-5.1-2.3c-2.3-1.1-3.3-3.7-2.3-6c0.9-2.2,3.5-3.3,5.7-2.4c0,0,0.1,0,0.1,0.1
					l5.1,2.3c2.3,1.1,3.3,3.7,2.3,6c-0.9,2.2-3.5,3.3-5.7,2.4C16.9,70.8,16.8,70.8,16.8,70.8"/>
				<path id="パス_2230" class="st8" d="M16,59.7l-5.1-2.3c-2.3-1.1-3.3-3.7-2.3-6c0.9-2.2,3.5-3.3,5.7-2.4c0,0,0.1,0,0.1,0.1
					l5.1,2.3c2.3,1.1,3.3,3.7,2.3,6c-0.9,2.2-3.5,3.3-5.7,2.4C16,59.7,16,59.7,16,59.7"/>
				<path id="パス_2231" class="st8" d="M15.2,48.4l-5.1-2.3c-2.3-1.1-3.3-3.7-2.3-6c0.9-2.2,3.5-3.3,5.7-2.4c0,0,0.1,0,0.1,0.1
					l5.1,2.3c2.3,1.1,3.3,3.7,2.3,6c-0.9,2.2-3.5,3.3-5.7,2.4C15.3,48.4,15.3,48.4,15.2,48.4"/>
				<path id="パス_2232" class="st10" d="M16.8,70.8l-5.1-2.3c-2.3-1.1-3.3-3.7-2.3-6c0.9-2.2,3.5-3.3,5.7-2.4c0,0,0.1,0,0.1,0.1
					l5.1,2.3c2.3,1.1,3.3,3.7,2.3,6c-0.9,2.2-3.5,3.3-5.7,2.4C16.9,70.8,16.8,70.8,16.8,70.8z"/>
				<path id="パス_2233" class="st10" d="M16,59.7l-5.1-2.3c-2.3-1.1-3.3-3.7-2.3-6c0.9-2.2,3.5-3.3,5.7-2.4c0,0,0.1,0,0.1,0.1
					l5.1,2.3c2.3,1.1,3.3,3.7,2.3,6c-0.9,2.2-3.5,3.3-5.7,2.4C16,59.7,16,59.7,16,59.7z"/>
				<path id="パス_2234" class="st10" d="M15.2,48.4l-5.1-2.3c-2.3-1.1-3.3-3.7-2.3-6c0.9-2.2,3.5-3.3,5.7-2.4c0,0,0.1,0,0.1,0.1
					l5.1,2.3c2.3,1.1,3.3,3.7,2.3,6c-0.9,2.2-3.5,3.3-5.7,2.4C15.3,48.4,15.3,48.4,15.2,48.4z"/>
			</g>
		</g>
	</g>
</g>
</svg>
